<!-- Generator: Adobe Illustrator 19.0.1, SVG Export Plug-In  -->
<svg version="1.1"
	 xmlns="http://www.w3.org/2000/svg" xmlns:xlink="http://www.w3.org/1999/xlink" xmlns:a="http://ns.adobe.com/AdobeSVGViewerExtensions/3.0/"
	 x="0px" y="0px" width="93.857px" height="114.716px" viewBox="0 0 93.857 114.716"
	 style="enable-background:new 0 0 93.857 114.716;" xml:space="preserve">
<style type="text/css">
	.st0{fill:#798B8C;}
</style>
<defs>
</defs>
<path class="st0" d="M91.574,54.425c-1.521-1.521-3.367-2.281-5.541-2.281h-2.605V36.5c0-9.994-3.585-18.575-10.754-25.745
	C65.504,3.585,56.923,0,46.928,0S28.351,3.585,21.182,10.755c-7.17,7.17-10.754,15.751-10.754,25.745v15.644H7.821
	c-2.172,0-4.019,0.76-5.54,2.281C0.76,55.945,0,57.792,0,59.966v46.929c0,2.172,0.76,4.019,2.281,5.54
	c1.521,1.52,3.368,2.281,5.54,2.281h78.214c2.174,0,4.02-0.76,5.541-2.281c1.52-1.521,2.281-3.368,2.281-5.54v-46.93
	C93.858,57.793,93.096,55.946,91.574,54.425z M67.785,52.144H26.071V36.5c0-5.757,2.037-10.673,6.111-14.746
	c4.074-4.074,8.989-6.11,14.747-6.11s10.673,2.036,14.746,6.11c4.073,4.073,6.11,8.989,6.11,14.746V52.144z"/>
</svg>